<?xml version="1.0" encoding="utf-8"?>
<!-- Generator: Adobe Illustrator 28.0.0, SVG Export Plug-In . SVG Version: 6.00 Build 0)  -->
<svg version="1.1" id="Camada_1" xmlns="http://www.w3.org/2000/svg" xmlns:xlink="http://www.w3.org/1999/xlink" x="0px" y="0px"
	 viewBox="0 0 218 50" style="enable-background:new 0 0 218 50;" xml:space="preserve">
<style type="text/css">
	.st0{fill:#FFFFFF;}
	.st1{fill:#F38630;}
</style>
<g>
	<path class="st0" d="M11.6,28.7c-3.7-0.9-6.6-3-8.2-6c-0.8-1.5-1.3-4.4-0.7-7.6C3.3,11.2,5.7-0.5,14,2.2c3.5,1.3,5.4,5.2,4.1,8.8
		L17,15.3l2.9-0.2c0-2.4,0.1-7.8,0.7-9c1.4-2.9,3.5-3.5,4.8-3.8c1.7-0.4,3.5-0.1,5.1,1c0.2,0.1,3.1,1.9,3.2,6.3
		c0.1,3.9-0.2,25.4-0.1,30.5c0.1,3.8-2.9,7-6.7,7.2c-3.8,0.1-7-2.9-7.2-6.7c-0.1-2-0.1-6.5-0.1-11.5C17.5,29.2,14.3,29.3,11.6,28.7z
		"/>
	<path class="st1" d="M21.7,18.3c-0.2,0-0.4,0.1-0.5,0.1s-0.1,0.1-0.2,0.1l-4.3,0.4h-0.2c-0.5,0-1.3-0.1-2-0.2
		c-0.4-0.1-0.8-0.4-1.1-0.8S13,17,13.2,16.6l1.6-6.4c0-0.1,0.1-0.1,0.1-0.2c0.7-1.8-0.2-3.8-2.1-4.5C11,4.7,8.9,5.6,8.3,7.4
		C8.2,7.6,6.6,12,6,15.6c-0.4,2.3-0.2,4.4,0.4,5.5c1.1,2.1,3.2,3.6,6,4.2c3.1,0.8,7,0.4,8.9,0.2c0.5-0.1,1,0.1,1.4,0.4
		c0.4,0.4,0.5,0.8,0.5,1.3c0,5.7,0,11,0.1,13.2c0.1,2,1.7,3.5,3.6,3.4c2-0.1,3.5-1.7,3.4-3.6c-0.2-5.1,0.1-26.6,0.1-30.5
		c-0.1-2.5-1.6-3.5-1.7-3.6c-0.8-0.5-1.7-0.7-2.6-0.5c-0.7,0.1-1.7,0.5-2.4,1.9c-0.3,0.6-0.3,5.9-0.3,9.1
		C23.2,17.5,22.6,18.2,21.7,18.3z"/>
	<path class="st0" d="M66.4,19.1c0,0.8-0.1,1.6-0.2,2.3c-0.2,0.9-0.4,1.8-0.8,2.6c-0.5,1.3-1.3,2.6-2.2,3.8
		c-2.3,2.9-6.2,5.4-12.1,6.1c0.1,1.1,0.1,2.2,0.1,3.3c0.1,0.7,0,1.5,0.1,2.3c0,0.1-0.1,0.2-0.1,0.4c0.2,1.2-0.1,2.4-0.7,3.6
		c-1.4,2.8-3.4,3.2-4.2,3.5c-1.8,0.4-3.4,0.2-4.8-0.7c-1-0.5-2.1-1.5-2.9-3.2c-0.2-0.4-0.4-1.1-0.5-1.9l0.1-1.7c0-0.7,0-1.3-0.1-2
		c0-2-0.2-4.1-0.2-6.1c-0.1-1-0.2-2.2-0.4-3.6c-0.2-1.6-0.4-3-0.5-4.5c-0.2-1.4-0.2-2.7-0.4-4.1c0-1.3,0.1-2.5,0.3-3.6
		c0.3-1.7,0.9-3.3,1.7-4.7c-0.2-0.5-0.3-1-0.4-1.4c-0.4-1.7-0.7-3.3-0.8-5c0-0.4-0.2-2,0.1-2.7C37.8,1,38.3,0.7,39,0.5
		c0.4-0.1,1,0,1.5,0.2c0.7,0.2,1.5,0.8,2,1c2,1.1,4.1,2,5.8,3.4c2.9-0.5,5.4-0.4,7.6,0.2c0.8,0.2,1.6,0.5,2.3,0.8
		c0.2,0.2,0.3,0.1,0.3,0.1l1.1-1.3c1-1,2-1.9,3.2-2.7c0.3-0.2,0.9-0.7,1.4-0.8c0.7-0.2,1.3-0.1,1.8,0.3c0.4,0.4,0.7,0.8,0.9,1.5
		C67.1,4,67.1,5,67,5.6c-0.1,2.7-0.7,5.3-1.7,7.9c0,0.1-0.1,0.1-0.1,0.1c0.3,0.7,0.5,1.4,0.7,2C66.3,16.7,66.4,17.9,66.4,19.1z"/>
	<path class="st1" d="M62.9,16.4C62,13,59.3,9.8,55.3,8.6C52.4,7.9,49,8.2,45,9.9c-2.7,1.2-4.2,3.5-4.8,6.6c-0.9,4.7,0.9,11.5,1,15
		c0.1,2.1,0.2,4.1,0.3,6.2v2.1c0,0.4-0.1,1.1,0,1.4c0,0.4,0.1,0.8,0.2,1c0.4,0.9,1,1.3,1.4,1.6c0.8,0.4,1.6,0.6,2.4,0.4
		c0.5-0.1,1.5-0.4,2.2-1.8c0.4-0.7,0.4-1.3,0.4-1.9v-0.3c0-0.2,0-0.3,0-0.4v-2.2c-0.1-1.6-0.2-3.2-0.2-4.8c0-0.4,0.1-0.8,0.5-1.2
		c0.3-0.3,0.7-0.5,1.1-0.5h0.4c5.4-0.5,8.9-2.6,10.9-5.1C63.2,23,63.7,19.5,62.9,16.4z"/>
	<path class="st1" d="M40.7,4.6c0.1,1.3,0.3,2.6,0.6,3.8c0.7-0.5,1.5-1,2.4-1.4l0.8-0.4c-1.1-0.6-2.2-1.2-3.3-1.7
		C41,4.8,40.9,4.7,40.7,4.6z"/>
	<path class="st0" d="M56.4,18.2c0.4,1.4,0.1,2.7-1,3.8c-1.1,1.2-3.2,2.1-6.3,2.4c-0.2,0-0.3,0.1-0.5,0.1c-0.5,0.1-1,0.1-1.3-0.2
		c-0.4-0.2-0.7-0.7-0.7-1.1c-0.1-0.7-0.2-1.3-0.2-2c-0.1-1.2-0.1-2.3,0.1-3.3c0.1-0.3,0.2-0.7,0.3-1c0.1-0.4,0.4-0.7,0.8-0.9
		C52.4,14,55.7,15.4,56.4,18.2z"/>
	<path class="st1" d="M53.4,19c-0.1-0.4-0.5-0.7-1-0.7c-0.7-0.2-1.6-0.1-2.6,0.3c-0.1,0.7-0.1,1.5-0.1,2.3V21c1.4-0.2,2.4-0.5,3.1-1
		C53.2,19.7,53.4,19.4,53.4,19z"/>
	<path class="st1" d="M63.9,5.4c-0.7,0.5-1.3,1.1-1.9,1.7l-0.9,1c0.7,0.6,1.4,1.3,2,2C63.5,8.6,63.8,7.1,63.9,5.4
		C63.9,5.5,63.9,5.4,63.9,5.4z"/>
	<path class="st0" d="M104.2,48.1c-3.4,1.2-7.1-0.7-8.2-4.1c-0.4-1.1-0.7-3-0.9-5.4c-1.1,1.7-2.2,3.2-3.5,4.4
		c-2.6,2.6-5.5,4-8.8,4.2c-3.1,0.3-6.6-0.5-10.3-3.3c-5.1-3.9-6.8-12.3-4.2-20.2c2.2-6.6,7.2-12.2,13.3-13.8
		c3.2-0.8,6.9-0.7,10.8,1.2l0.7-1.1c1.7-2.6,3.8-3.2,5.3-3.4c1.5-0.1,3.1,0.2,4.6,1.2c1,0.7,3,2.7,3.8,7.6
		c0.4,2.3,0.3,20.5,1.6,24.4C109.5,43.3,107.7,47,104.2,48.1z"/>
	<path class="st1" d="M105.3,40.9c-1.3-3.9-1.4-22.6-1.7-24.9c-0.5-3.5-1.7-5-2.4-5.5c-0.8-0.5-1.6-0.7-2.4-0.6c-0.9,0.1-2,0.5-3,2
		c-0.3,0.4-0.7,1.2-1.1,2.1c-0.2,0.4-0.5,0.8-1,0.9c-0.4,0.2-0.9,0.1-1.3-0.1c-3.6-2.1-7-2.4-10-1.7c-5.1,1.3-9.2,6.1-11,11.7
		c-2.1,6.4-1.1,13.4,3.2,16.6c2.9,2.3,5.7,2.9,8.1,2.7s4.8-1.4,6.8-3.3c2-2,3.8-5,5.4-8.2c0.4-0.7,1.1-1,1.8-0.9s1.3,0.7,1.3,1.5
		c0.3,4.4,0.7,8.3,1.2,9.9c0.5,1.8,2.4,2.7,4.2,2.1C104.9,44.5,105.9,42.6,105.3,40.9z"/>
	<path class="st0" d="M80.4,29.2c0.7,1.4,0.1,3-1.3,3.6c-0.9,0.4-1.4,0.3-1.8,0.2s-1-0.2-1.5-1c-1-1.2-0.7-2.9,0.4-3.8
		c0.3-0.2,0.6-0.4,0.9-0.4H77c0.1,0,0.1,0,0.2-0.1c0.5-0.2,0.8-0.1,1.2-0.1l0.1,0.1h0.2c0.4,0.1,0.7,0.2,1.1,0.7
		c-0.2-0.2-0.5-0.4-0.8-0.5c0.4,0.2,0.8,0.5,1.1,0.8c0-0.1-0.1-0.1-0.1-0.1C80.1,28.8,80.3,29,80.4,29.2z"/>
	<path class="st0" d="M76.8,28c0.1-0.1,0.2-0.1,0.3-0.1L76.8,28z"/>
	<path class="st0" d="M78.1,27.7c-0.2-0.1-0.5,0-0.8,0.1C77.6,27.7,77.8,27.7,78.1,27.7z"/>
	<path class="st0" d="M81.8,27.1c-1.2,0.5-2.5,0.1-3.3-0.9c-0.2-0.2-0.3-0.5-0.4-0.8c-0.5-1.4,0.4-3,1.8-3.5
		c0.9-0.3,1.6-0.1,2.3,0.3c0.4,0.2,1.1,1.4,1.1,1.5C83.7,25,83.1,26.5,81.8,27.1z"/>
	<path class="st0" d="M80.7,27.2c-0.4,0-0.8-0.1-1.3-0.3C79.8,27.1,80.2,27.2,80.7,27.2z"/>
	<path class="st0" d="M79.9,28.6c0-0.1-0.1-0.1-0.1-0.2C79.9,28.5,79.9,28.5,79.9,28.6z"/>
	<path class="st0" d="M89.4,33.4c-0.9,1-2.3,1.1-3.4,0.4c-0.5,1-1.6,1.7-2.7,1.6c-1.5-0.2-2.6-1.5-2.4-3c0.2-2.6,1.6-4,3-4.5
		s3.4-0.4,5.4,1.7C90.4,30.6,90.4,32.3,89.4,33.4z"/>
	<path class="st0" d="M84.6,25c-0.7-1.3-0.2-3,1.1-3.7c1.3-0.8,3-0.3,3.7,1s0.2,3-1.1,3.7S85.4,26.3,84.6,25z"/>
	<path class="st0" d="M94.2,26.5c0.4,0.9,0.2,2-0.5,2.7c-1,1.1-2.7,1.2-3.8,0.2c-0.5-0.4-0.6-0.7-0.7-1L89,27.7
		c-0.2-1.4,0.7-2.7,2.1-3c1-0.2,1.8,0.1,2.5,0.8l0.1,0.1c0.1,0.1,0.1,0.2,0.2,0.2c0-0.1-0.1-0.1-0.1-0.1c0.2,0.2,0.2,0.4,0.3,0.5
		v0.1L94.2,26.5L94.2,26.5z"/>
	<polygon class="st0" points="93.7,25.6 93.6,25.5 93.5,25.4 	"/>
	<path class="st0" d="M93.7,25.6c0.1,0.1,0.1,0.1,0.1,0.1C93.8,25.7,93.8,25.7,93.7,25.6z"/>
	<path class="st0" d="M139.7,35.9c-2.3,8.5-8.2,11.6-13.3,11.3c-4.8-0.3-10.3-3.9-12.6-12.2c-1.3-4.8-2.1-24.4-2.1-24.4
		C111.6,7,114.4,4,118,3.9c3.6-0.2,6.6,2.7,6.7,6.3c0,0,0.1,2,0.2,4.9l0.4-0.1c3.6-0.7,7,1.7,7.6,5.2c0.7,3.5-1.7,6.9-5.2,7.6
		l-1.9,0.4c0.1,1.5,0.3,2.7,0.5,3.5c0.1,0.5,0.3,1,0.5,1.4l0.2-0.5c0.9-3.5,4.5-5.5,8-4.6S140.6,32.5,139.7,35.9z"/>
	<path class="st0" d="M180,48.1c-3.4,1.2-7.1-0.7-8.2-4.1c-0.4-1.1-0.7-3-0.9-5.4c-1.1,1.7-2.2,3.2-3.5,4.4c-2.6,2.6-5.5,4-8.8,4.2
		c-3.1,0.3-6.6-0.5-10.3-3.3c-5.1-3.9-6.8-12.3-4.2-20.2c2.2-6.6,7.2-12.2,13.3-13.8c3.2-0.8,6.9-0.7,10.8,1.2l0.7-1.1
		c1.7-2.6,3.8-3.2,5.3-3.4c1.5-0.1,3.1,0.2,4.6,1.2c1,0.7,3,2.7,3.8,7.6c0.4,2.3,0.3,20.5,1.6,24.4C185.2,43.3,183.4,47,180,48.1z"
		/>
	<path class="st1" d="M181.1,40.9c-1.3-3.9-1.4-22.6-1.7-24.9c-0.5-3.5-1.7-5-2.4-5.5c-0.8-0.5-1.6-0.7-2.4-0.6c-0.9,0.1-2,0.5-3,2
		c-0.3,0.4-0.7,1.2-1.1,2.1c-0.2,0.4-0.5,0.8-1,0.9c-0.4,0.2-0.9,0.1-1.3-0.1c-3.6-2.1-7-2.4-10-1.7c-5.1,1.3-9.2,6.1-11,11.7
		c-2.1,6.4-1.1,13.4,3.2,16.6c2.9,2.3,5.7,2.9,8.1,2.7c2.4-0.2,4.8-1.4,6.8-3.3c2-2,3.8-5,5.4-8.2c0.4-0.7,1.1-1,1.8-0.9
		s1.3,0.7,1.3,1.5c0.3,4.4,0.7,8.3,1.2,9.9c0.5,1.8,2.4,2.7,4.2,2.1C180.7,44.5,181.7,42.6,181.1,40.9z"/>
	<path class="st0" d="M156.2,29.2c0.7,1.4,0.1,3-1.3,3.6c-0.9,0.4-1.4,0.3-1.8,0.2c-0.4-0.1-1-0.2-1.5-1c-1-1.2-0.7-2.9,0.4-3.8
		c0.3-0.2,0.6-0.4,0.9-0.4h-0.1c0.1,0,0.1,0,0.2-0.1c0.5-0.2,0.8-0.1,1.2-0.1l0.1,0.1h0.2c0.4,0.1,0.7,0.2,1.1,0.7
		c-0.2-0.2-0.5-0.4-0.8-0.5c0.4,0.2,0.8,0.5,1.1,0.8c0-0.1-0.1-0.1-0.1-0.1C155.9,28.8,156.1,29,156.2,29.2z"/>
	<path class="st0" d="M152.5,28c0.1-0.1,0.2-0.1,0.3-0.1L152.5,28z"/>
	<path class="st0" d="M153.9,27.7c-0.2-0.1-0.5,0-0.8,0.1C153.4,27.7,153.6,27.7,153.9,27.7z"/>
	<path class="st0" d="M157.6,27.1c-1.2,0.5-2.5,0.1-3.3-0.9c-0.2-0.2-0.3-0.5-0.4-0.8c-0.5-1.4,0.4-3,1.8-3.5
		c0.9-0.3,1.6-0.1,2.3,0.3c0.4,0.2,1.1,1.4,1.1,1.5C159.5,25,158.9,26.5,157.6,27.1z"/>
	<path class="st0" d="M156.5,27.2c-0.4,0-0.8-0.1-1.3-0.3C155.6,27.1,156,27.2,156.5,27.2z"/>
	<path class="st0" d="M155.7,28.6c0-0.1-0.1-0.1-0.1-0.2C155.6,28.5,155.7,28.5,155.7,28.6z"/>
	<path class="st0" d="M165.1,33.4c-0.9,1-2.3,1.1-3.4,0.4c-0.5,1-1.6,1.7-2.7,1.6c-1.5-0.2-2.6-1.5-2.4-3c0.2-2.6,1.6-4,3-4.5
		s3.4-0.4,5.4,1.7C166.1,30.6,166.1,32.3,165.1,33.4z"/>
	<path class="st0" d="M160.4,25c-0.7-1.3-0.2-3,1.1-3.7c1.3-0.8,3-0.3,3.7,1s0.2,3-1.1,3.7C162.7,26.7,161.1,26.3,160.4,25z"/>
	<path class="st0" d="M170,26.5c0.4,0.9,0.2,2-0.5,2.7c-1,1.1-2.7,1.2-3.8,0.2c-0.5-0.4-0.6-0.7-0.7-1l-0.2-0.7
		c-0.2-1.4,0.7-2.7,2.1-3c1-0.2,1.9,0.1,2.5,0.8l0.1,0.1c0.1,0.1,0.1,0.2,0.2,0.2c0-0.1-0.1-0.1-0.1-0.1c0.2,0.2,0.2,0.4,0.3,0.5
		v0.1L170,26.5L170,26.5z"/>
	<polygon class="st0" points="169.5,25.6 169.4,25.5 169.3,25.4 	"/>
	<path class="st0" d="M169.5,25.6c0.1,0.1,0.1,0.1,0.1,0.1C169.5,25.7,169.5,25.7,169.5,25.6z"/>
	<path class="st0" d="M215.5,36.4c-0.2,7.8-5.9,12.3-12.3,13.1c-6.1,0.8-12.8-2.1-15.3-8.7c-1.4-3.3,0.3-7.1,3.6-8.5
		c3.3-1.3,7.2,0.3,8.5,3.6c0.2,0.7,1,0.7,1.6,0.6c0.4-0.1,0.8-0.2,0.8-0.6c0.1-0.2-0.1-0.4-0.2-0.6c-0.2-0.2-0.5-0.5-0.8-0.7
		c-1.1-1-2.4-2-3.7-2.9c-3.6-2.7-6.6-6-7.6-10.5c-1.3-5.9,1.4-11.3,5.9-14.5c4.4-3.1,10.3-3.9,15.4-1.3c3.2,1.7,4.4,5.7,2.7,8.8
		c-1.7,3.2-5.7,4.4-8.8,2.7c-0.6-0.4-1.3-0.1-1.7,0.3c-0.4,0.3-0.8,0.7-0.7,1.3c0.2,1.1,1.3,1.7,2.1,2.4c1.4,1.1,2.9,2.1,4.3,3.3
		C213.2,27.4,215.7,31.1,215.5,36.4z"/>
	<path class="st1" d="M134.2,31.1c-1.8-0.5-3.6,0.5-4.1,2.3c-0.2,0.7-0.3,1.2-0.7,2c-0.2,0.3-0.3,0.6-0.5,0.7
		c-0.4,0.4-0.8,0.5-1,0.6c-0.6,0.2-1.3,0.2-1.7,0.2c-0.2,0-0.3,0-0.4,0c-0.3-0.1-0.8-0.4-1.2-0.9c-0.2-0.2-0.8-0.9-1.2-2.8
		c-0.2-0.8-0.1-0.9-0.3-2c-0.4-2.7-0.4-3.2-0.5-4.3c-0.1-0.8,0.5-1.5,1.3-1.7l3.4-0.6c1.8-0.4,3-2.1,2.7-3.9c-0.4-1.9-2.1-3-3.9-2.7
		l-2.2,0.4c-0.5,0.1-0.9,0-1.3-0.3c-0.4-0.3-0.5-0.7-0.6-1.2c-0.2-3.7-0.2-6.6-0.3-6.7c-0.1-1.9-1.6-3.3-3.4-3.2
		c-1.9,0.1-3.3,1.6-3.2,3.5c0,0.4,0.7,19,2,23.7c0.4,1.3,0.8,2.3,1.3,3.3c0,0,0.6,1.2,1.6,2.9c0.6,0.6,2.6,2.6,5.4,3.2
		c0.6,0.1,1.6,0.4,3,0.1c0.7-0.1,1.3-0.4,1.8-0.6c0.6-0.2,1.5-0.6,2.4-1.4c0.6-0.5,1-0.9,1.2-1.3l0,0l0,0c1.2-1.4,2.1-3.2,2.8-5.5
		C137,33.3,136,31.5,134.2,31.1z"/>
	<path class="st1" d="M207.3,26.6c-1.3-1.1-2.8-2.1-4.2-3.3c-1.4-1.1-2.9-2.3-3.2-4.2c-0.4-1.9,0.5-3.5,2-4.5
		c1.4-1.1,3.4-1.5,5.1-0.6c1.6,0.9,3.6,0.2,4.5-1.4c0.9-1.6,0.2-3.6-1.4-4.5c-4-2.1-8.6-1.4-12,1c-3.5,2.4-5.6,6.7-4.7,11.3
		c0.8,3.7,3.4,6.3,6.4,8.6c1.4,1,2.7,2,3.9,3c1.1,1,2.1,2.1,2.1,3.8c0,0.2-0.1,0.5-0.1,0.7c0,0-5,5.5-8.7,0.5l0,0
		c-0.7-1.6-2.6-2.3-4.2-1.7c-1.7,0.7-2.6,2.6-1.8,4.4c0.5,1.3,1.3,2.4,2.1,3.4c0,0,1,1,2.5,1.8c0,0,0,0,0,0c0,0,0.1,0,0.1,0.1
		c0.7,0.4,1.4,0.7,2.3,0.9c0,0,0,0,0.1,0c0,0,0,0,0,0c0,0,0,0,0,0c0.8,0.2,1.7,0.4,2.6,0.4c0.7,0,1.6,0,2.7-0.3
		c0.6-0.1,1.1-0.3,1.5-0.5c0.9-0.4,2.1-1,3.4-1.9c0.6-0.5,1.5-1.1,2.3-2c1.8-2.3,1.8-5,1.8-5.6C212.5,32.1,210.4,29.1,207.3,26.6z"
		/>
</g>
</svg>
